<svg xmlns="http://www.w3.org/2000/svg" width="104" height="110" viewBox="0 0 104 110" fill="none">
  <g clip-path="url(#clip0_997_2029)">
    <path d="M62.6358 26.7828C62.5297 26.7828 62.4206 26.7707 62.3104 26.7454C60.9971 26.4451 60.7005 24.5091 60.5892 23.7798C60.4739 23.0263 60.4172 22.121 61.0023 21.8042C61.3731 21.604 61.8077 21.769 62.1383 22.0583C62.1857 21.8768 62.2424 21.6865 62.3114 21.4918C62.6286 20.6063 63.1395 19.5932 63.7781 19.7956C64.3539 19.9782 64.2859 20.6602 64.1644 21.8988C64.1252 22.2981 64.0614 22.9471 64.0675 23.3673C64.0809 23.3541 64.0943 23.342 64.1056 23.331C64.3446 23.1044 64.7432 22.726 65.1521 23.0505C65.6754 23.4663 65.2397 24.4123 64.9338 24.9392C64.5959 25.5222 63.7359 26.7817 62.6358 26.7828ZM61.544 22.9658C61.5451 23.1066 61.5605 23.3101 61.6048 23.6027C61.6779 24.079 61.8994 25.5266 62.5246 25.6696C62.9232 25.7609 63.4454 25.2791 63.8533 24.6851C63.7719 24.684 63.6875 24.6675 63.6009 24.6323C63.0386 24.4013 62.9902 23.6489 63.0633 22.6391C63.019 22.8459 62.9881 23.0351 62.9613 23.1957C62.8944 23.5972 62.8109 24.0966 62.331 24.0966C62.3279 24.0966 62.3258 24.0966 62.3227 24.0966C62.0261 24.0933 61.8355 23.8854 61.7572 23.4795C61.7284 23.3277 61.6924 23.1396 61.5708 22.9966C61.5636 22.9856 61.5543 22.9757 61.544 22.9658Z" fill="white"/>
    <path d="M57.8236 49.6043L56.8008 49.4778C57.8905 39.3963 58.7691 32.4861 59.0122 30.6084C59.1224 29.7603 59.3799 27.7759 60.8065 26.8827C61.8097 26.2546 63.3063 26.1413 64.224 27.1379C65.0717 28.0586 65.4342 29.845 64.5433 31.1265L63.7162 30.4709C64.2652 29.6822 64.0417 28.5096 63.4896 27.909C62.9138 27.2831 61.8787 27.4866 61.3276 27.832C60.3316 28.4557 60.1297 30.0111 60.0329 30.7591C59.7888 32.6346 58.9123 39.5338 57.8236 49.6043Z" fill="white"/>
    <path d="M56.2797 30.9471C55.0396 30.9471 54.3464 29.2333 54.0838 28.5832C53.8139 27.9155 53.5626 27.0982 54.0075 26.6857C54.3639 26.3557 54.8923 26.5427 55.2013 26.7363C55.2013 26.5009 55.2116 26.2435 55.2415 25.9729C55.3414 25.0896 55.5793 24.0435 56.1499 24.0435C56.1571 24.0435 56.1644 24.0435 56.1716 24.0435C56.6855 24.0677 56.7669 24.676 56.9276 25.8893C56.9915 26.3689 57.1006 27.1928 57.2325 27.5668C57.2871 27.4909 57.3437 27.4018 57.3829 27.3413C57.5662 27.0553 57.8165 26.6626 58.2099 26.8375C58.7558 27.0795 58.5035 28.1443 58.3686 28.5909C58.1605 29.2839 57.5446 30.9009 56.3281 30.946C56.3127 30.9471 56.2962 30.9471 56.2797 30.9471ZM54.5915 27.4051C54.6049 27.5349 54.6585 27.7846 54.8398 28.2334C55.0242 28.6899 55.5804 30.0671 56.2808 30.0671C56.2869 30.0671 56.2941 30.0671 56.3003 30.0671C56.837 30.0473 57.2932 29.2146 57.5435 28.4545C57.4189 28.537 57.2778 28.5832 57.1171 28.5623C56.4394 28.4743 56.2952 27.3886 56.1129 26.0136C56.1057 25.9608 56.0984 25.9069 56.0912 25.8508C56.0799 25.9256 56.0696 26.0015 56.0603 26.0785C55.9996 26.6153 56.0315 27.0993 56.0552 27.4524C56.083 27.877 56.1087 28.2774 55.7204 28.3775C55.3661 28.4677 55.2075 28.1168 55.1488 27.9848C55.0839 27.8418 54.9963 27.6449 54.8233 27.5206C54.743 27.4634 54.6575 27.426 54.5915 27.4051Z" fill="white"/>
    <path d="M56.2632 54.5235C55.0262 44.4541 54.3062 37.5307 54.1157 35.6486C54.0312 34.8137 53.8324 32.8579 54.9778 31.6589C55.6267 30.9791 57.0275 30.2531 58.2254 31.0352C59.2204 31.6842 59.9527 33.2649 59.4016 34.685L58.6405 34.3473C59.0133 33.3881 58.5045 32.2485 57.7959 31.7854C57.0059 31.2695 56.0016 31.8195 55.5556 32.287C54.6956 33.1868 54.8573 34.7851 54.9356 35.5529C55.1261 37.4328 55.845 44.3485 57.081 54.408L56.2632 54.5235Z" fill="white"/>
    <path d="M44.7345 22.9339L36.4862 12.8843L21.2021 15.2284L12.9827 36.3759L18.0297 58.3275H45.7222L49.6115 36.0701L44.7345 22.9339Z" fill="white"/>
    <path d="M46.2352 58.9874H17.5445L12.3337 36.3219L20.7653 14.6277L36.7303 12.1802L45.269 22.584L50.2522 36.004L46.2352 58.9874ZM18.5137 57.6674H45.2082L48.9708 36.136L44.1989 23.2825L36.2421 13.5882L21.6367 15.8278L13.6305 36.4275L18.5137 57.6674Z" fill="#CD1447"/>
    <path d="M14.9777 57.112L10.0244 35.5443L18.7815 14.5684H21.6521V15.8884H19.5838L11.3263 35.6686L16.1787 56.7974L14.9777 57.112Z" fill="#CD1447"/>
    <path d="M11.2831 35.413L11.2688 36.7329L12.9753 36.7541L12.9897 35.4342L11.2831 35.413Z" fill="#CD1447"/>
    <path d="M36.4097 12.2314L19.1055 14.5747L19.261 15.8843L36.5652 13.541L36.4097 12.2314Z" fill="#CD1447"/>
    <path d="M39.5544 56.7123C41.5107 56.7123 43.0965 55.0186 43.0965 52.9294C43.0965 50.8401 41.5107 49.1465 39.5544 49.1465C37.5981 49.1465 36.0122 50.8401 36.0122 52.9294C36.0122 55.0186 37.5981 56.7123 39.5544 56.7123Z" fill="white"/>
    <path d="M39.3896 57.4482C38.8448 57.4482 38.4863 57.3272 38.4771 57.3239C37.2699 56.8663 36.3017 55.8873 35.8145 54.6355C35.3551 53.4563 35.3665 52.1594 35.8444 51.0792C36.7446 49.0453 39.0992 48.0685 41.2066 48.8561C41.4208 48.9364 41.5341 49.1872 41.4599 49.4171C41.3847 49.647 41.1499 49.768 40.9346 49.6877C39.2207 49.0486 37.3121 49.8252 36.5901 51.4565C36.2111 52.3134 36.2059 53.3496 36.5757 54.2989C36.9733 55.3197 37.7612 56.1183 38.7397 56.4912C38.8746 56.5363 41.0047 57.1875 42.5888 54.2659C42.7031 54.0558 42.9545 53.9832 43.1522 54.1053C43.35 54.2274 43.4159 54.4958 43.3026 54.707C42.0367 57.0346 40.3949 57.4482 39.3896 57.4482Z" fill="#CD1447"/>
    <path d="M36.2832 50.1597C35.9433 50.1597 35.5674 50.0915 35.1842 49.8979C34.1439 49.3699 33.5589 48.1973 33.4342 47.5824C33.3683 47.2557 33.4054 47.0005 33.5455 46.8245C33.8473 46.4439 34.2541 46.7079 34.5229 46.8828C34.8144 47.072 35.2542 47.358 35.934 47.523C36.0803 47.5582 36.2276 47.5857 36.3697 47.6121C36.8281 47.6979 37.2988 47.7848 37.6438 48.1335C37.6613 48.0675 37.6799 47.9993 37.7005 47.9311C38.0291 46.8531 38.678 46.2371 38.9221 46.005C39.3001 45.6453 40.2312 44.8665 40.7029 45.3934C40.9862 45.7091 40.8502 46.1898 40.4825 47.0214C40.1653 47.7375 39.779 48.4371 39.3361 49.0993C39.2043 49.2973 38.9468 49.3424 38.7614 49.2016C38.576 49.0608 38.5338 48.7858 38.6656 48.5878C39.0807 47.9685 39.4412 47.314 39.7368 46.6452C39.7904 46.5242 39.8346 46.4197 39.8707 46.3295C39.744 46.4208 39.6039 46.533 39.47 46.6606C39.2527 46.8674 38.7439 47.3514 38.4843 48.2028C38.4328 48.3733 38.3926 48.5493 38.3587 48.7044C38.2721 49.0927 38.1743 49.5305 37.7767 49.5305C37.7654 49.5305 37.754 49.5305 37.7427 49.5294C37.7252 49.6768 37.6387 49.8099 37.5027 49.8759C37.2792 49.9837 36.8291 50.1597 36.2832 50.1597ZM34.3849 47.8156C34.5909 48.2556 34.9916 48.8254 35.5385 49.1026C36.2018 49.4392 36.8435 49.228 37.1669 49.0729C37.1917 49.0608 37.2154 49.052 37.2411 49.0465C37.2174 48.9893 37.1927 48.9321 37.1639 48.8826C37.0217 48.6362 36.7313 48.5713 36.2307 48.4778C36.0782 48.4492 35.9196 48.4195 35.7538 48.3799C35.1512 48.2347 34.7042 48.007 34.3849 47.8156Z" fill="#CD1447"/>
    <path d="M55.0136 40.3777L53.4583 34.5862C53.1607 33.4774 52.7064 32.4214 52.1008 31.4655C51.559 30.6097 50.8617 29.7088 50.1695 29.3722C49.1334 28.8673 48.0704 28.7683 47.4565 28.7243L42.7577 13.8765L38.957 15.3824L41.6638 30.5316C41.6638 30.5316 41.7029 30.7725 41.534 30.9661C41.1097 31.4534 40.7389 31.5293 40.0168 32.2223C39.1774 33.0286 38.8509 33.9977 38.7365 34.3387C38.1566 36.0602 38.6253 37.642 38.822 38.2074L38.7561 37.9643L42.4538 50.5901L47.8798 70.4682L61.7982 64.6734L55.0136 40.3777Z" fill="white"/>
    <path d="M47.4762 71.3451L41.8637 50.7817L38.2474 38.4364L38.2433 38.4375C37.9507 37.596 37.549 35.9152 38.1557 34.1156C38.2783 33.7526 38.6501 32.6493 39.6039 31.7319C39.9973 31.3535 40.3002 31.1401 40.5432 30.9685C40.7431 30.8277 40.8914 30.7232 41.0407 30.5626L38.2525 14.958L43.1399 13.022L47.9119 28.1019C48.5288 28.1635 49.4847 28.3153 50.4261 28.7729C51.1121 29.1062 51.8475 29.8883 52.6128 31.0972C53.2473 32.0993 53.7314 33.2125 54.0517 34.4049L55.607 40.1931L62.5543 65.0674L47.4762 71.3451ZM39.3464 37.7676L43.0482 50.4055L48.2847 69.5917L61.0444 64.2798L54.4194 40.5605L52.8641 34.769C52.5798 33.7097 52.1503 32.723 51.589 31.8364C50.971 30.8596 50.3756 30.1985 49.9132 29.973C48.9264 29.4923 47.8665 29.4153 47.4144 29.3823L47.0024 29.3526L42.3756 14.7314L39.6616 15.8061L42.2726 30.4185C42.2881 30.512 42.3457 31.0026 41.9863 31.4151C41.7226 31.7176 41.4805 31.8881 41.2241 32.0696C40.9934 32.2324 40.7554 32.4007 40.4299 32.7131C39.7059 33.4083 39.4236 34.2476 39.3175 34.5622C38.888 35.836 39.1126 37.0537 39.333 37.772L39.3464 37.7676Z" fill="#CD1447"/>
    <path d="M37.2719 11.987C37.2627 13.0056 37.5717 14.6028 38.3133 15.1187C39.0044 15.5994 39.815 15.3442 40.9913 14.9735C41.7617 14.7315 42.3797 14.5258 42.7577 13.8757C43.1316 13.2322 43.0451 12.5392 43.0265 12.4028C42.9266 11.701 42.5373 10.5218 42.4085 10.3887" fill="white"/>
    <path d="M39.1876 15.8203C38.7972 15.8203 38.4337 15.7279 38.0886 15.487C37.1709 14.849 36.8505 13.0417 36.8598 11.9824L37.6838 11.9901C37.6745 13.0252 37.999 14.3738 38.5377 14.7489C39.0455 15.102 39.6882 14.9238 40.8748 14.5509C41.638 14.3111 42.119 14.1384 42.4074 13.6434C42.6896 13.1583 42.6402 12.6215 42.6185 12.4686C42.5269 11.8229 42.1901 10.8263 42.0912 10.6668C42.0912 10.6679 42.1015 10.6833 42.1211 10.7031L42.6968 10.0728C42.9584 10.3456 43.3519 11.758 43.4343 12.3355C43.4755 12.6281 43.527 13.386 43.1088 14.1065C42.6402 14.9128 41.8625 15.157 41.1086 15.3946C40.3886 15.6212 39.7582 15.8192 39.1876 15.8203Z" fill="#CD1447"/>
    <path d="M42.4086 10.3882C42.2644 9.85907 40.9975 9.78757 39.5782 10.2287C38.1599 10.6698 37.1268 11.4574 37.271 11.9865C37.4152 12.5156 38.6821 12.5871 40.1014 12.146C41.5198 11.7049 42.5528 10.9173 42.4086 10.3882Z" fill="white"/>
    <path d="M38.4049 12.8733C37.6386 12.8733 37.0258 12.6566 36.8764 12.1099C36.6179 11.1606 38.0362 10.2509 39.4638 9.80645C40.8913 9.36205 42.5455 9.31585 42.8041 10.2652C43.0626 11.2145 41.6443 12.1242 40.2167 12.5686C39.6121 12.7567 38.9673 12.8733 38.4049 12.8733ZM37.6767 11.8602C37.8456 11.9944 38.683 12.1286 39.986 11.7238C41.29 11.3179 41.9275 10.7239 42.0027 10.5138C41.8338 10.3796 40.9964 10.2454 39.6935 10.6502C38.3905 11.0572 37.7519 11.6512 37.6767 11.8602Z" fill="#CD1447"/>
    <path d="M58.0738 51.3679C54.1773 57.353 43.9041 56.0495 43.9041 56.0495L41.0283 45.7216C41.0283 45.7216 51.3005 47.0251 55.198 41.04" fill="#CD1447"/>
    <path d="M97.2418 26.534C96.9802 26.2029 96.4106 25.6024 95.5372 25.3097C93.5451 24.642 91.7025 26.0732 88.9132 28.2402C87.2869 29.5041 86.3908 30.2003 85.9108 31.3641C85.8685 31.4664 85.8273 31.5753 85.7851 31.6908C85.6203 32.132 85.4493 32.5884 85.0301 33.0515C84.7325 33.3804 84.4925 33.5135 84.1278 33.7148C84.0053 33.783 83.8652 33.8601 83.7158 33.9503C81.3942 35.3495 80.5517 36.8575 80.254 37.8761C80.1078 38.3777 80.0841 38.7748 80.0645 39.0938C80.0408 39.4876 80.0295 39.6856 79.8235 39.9749C79.6566 40.2103 79.5021 40.2983 79.1962 40.4754C79.0716 40.5469 78.9243 40.6316 78.7564 40.7394C79.5989 36.7915 80.7525 30.7195 81.2871 24.9159C81.4025 23.6685 81.3901 21.4917 81.3654 17.1533L81.3582 15.9114C81.3582 15.8355 81.3396 14.0271 80.7587 11.7886C80.1067 9.27725 79.3363 8.49515 78.7379 8.09475C78.3969 7.86595 77.6914 7.48535 76.787 7.48535C76.7798 7.48535 76.7726 7.48535 76.7654 7.48535C74.6766 7.49965 73.3324 9.46315 71.2961 12.4376C70.1085 14.1712 69.4545 15.127 69.3319 16.391C69.3206 16.5021 69.3134 16.6198 69.3051 16.743C69.2742 17.2171 69.2423 17.7077 68.9755 18.2851C68.786 18.6954 68.5954 18.9001 68.306 19.2113C68.2082 19.3158 68.098 19.4358 67.9805 19.57C66.1708 21.66 65.8 23.3705 65.8072 24.4375C65.8114 24.9622 65.902 25.3482 65.9751 25.6584C66.0658 26.0412 66.1111 26.2338 65.9978 26.5759C65.9061 26.8542 65.7846 26.9894 65.5436 27.2567C65.4086 27.4063 65.2418 27.5923 65.0522 27.8376C64.2952 28.8209 63.979 29.7328 63.5783 30.8878C63.1025 32.2584 62.7265 33.3398 62.7883 34.8016C62.8079 35.2559 62.8645 35.6146 62.9109 35.9017C62.985 36.3681 63.0262 36.6243 62.9098 37.0413C62.8151 37.3822 62.6894 37.534 62.4628 37.809C62.3145 37.9883 62.1301 38.2128 61.9293 38.5274C61.2989 39.5152 61.1125 40.6075 60.7747 42.5919C60.4667 44.3969 60.3122 45.3022 60.4131 46.4067C60.4348 46.6432 60.4636 46.861 60.4893 47.0535C60.5666 47.6266 60.6171 48.0061 60.4533 48.4879C60.3544 48.7782 60.2607 48.8871 60.0753 49.1049C59.9301 49.2754 59.7488 49.4877 59.5356 49.8254C58.6796 51.1817 58.2769 53.1199 58.5087 54.7633C58.5602 55.1307 58.6364 55.4354 58.6982 55.6796C58.8166 56.1537 58.8527 56.3308 58.7517 56.586C58.6889 56.7455 58.6168 56.8258 58.4839 56.9721C58.3202 57.1525 58.1162 57.378 57.9113 57.7828C57.6517 58.2943 57.5559 58.7552 57.4653 59.9278C57.3901 60.8958 57.353 61.8924 57.354 62.889L58.59 62.8868C58.589 61.9266 58.625 60.9674 58.6971 60.0357C58.7363 59.5242 58.7734 59.1952 58.8187 58.9565C59.9187 59.7771 61.5121 60.6253 63.4032 60.6253C63.4784 60.6253 63.5536 60.6241 63.6288 60.6208C64.2952 60.5966 65.0492 60.5703 65.2994 59.9037C65.6033 59.093 64.8143 58.2844 63.5361 57.3208C62.6523 56.6542 61.3896 55.8248 59.7807 54.8546C59.7622 54.7633 59.7457 54.6688 59.7313 54.5664C59.5428 53.2322 59.8683 51.6602 60.5614 50.5635C60.5697 50.5492 60.579 50.5372 60.5872 50.5239C61.6903 51.3699 63.3291 52.2762 65.285 52.2762C65.3602 52.2762 65.4354 52.2752 65.5106 52.2719C66.177 52.2477 66.931 52.2212 67.1813 51.5546C67.4851 50.7439 66.6961 49.9355 65.4179 48.9719C64.5362 48.3064 63.2745 47.4781 61.6697 46.5101C61.6605 46.4342 61.6522 46.3582 61.645 46.2779C61.5605 45.3572 61.7047 44.5124 61.9921 42.8272C62.2702 41.1948 62.4278 40.2741 62.7862 39.5624C63.8894 40.4259 65.56 41.3797 67.5665 41.3797C67.6417 41.3797 67.7169 41.3786 67.792 41.3753C68.4718 41.3511 69.1743 41.3257 69.4493 40.6899C69.8304 39.8088 68.8694 38.8101 67.7745 37.8619C66.9011 37.1062 65.6466 36.1612 64.0459 35.0525C64.0367 34.9545 64.0295 34.8522 64.0243 34.7411C63.9738 33.5465 64.2942 32.6237 64.7381 31.3444C65.0471 30.4534 65.2737 29.8033 65.6682 29.1653C67.5665 30.24 69.4648 30.7833 71.3219 30.7833C71.4527 30.7833 71.5835 30.7811 71.7143 30.7757C72.598 30.7393 73.1862 30.6051 73.3849 30.0496C73.6538 29.3005 73.0749 28.5482 71.2498 27.2754C70.2455 26.5748 68.8354 25.708 67.0577 24.6971C67.0494 24.6124 67.0443 24.5233 67.0443 24.4264C67.0381 23.5982 67.3533 22.2375 68.889 20.4654C68.9178 20.4313 68.9467 20.4004 68.9755 20.3686C70.1271 21.2079 71.8678 22.1363 73.9453 22.1363C74.0338 22.1363 74.1224 22.1341 74.212 22.1308C74.9104 22.1044 75.6334 22.0758 75.8806 21.4136C76.1824 20.6061 75.4037 19.8053 74.142 18.8505C73.2943 18.2092 72.0923 17.415 70.5658 16.4888C70.6657 15.5956 71.1807 14.8411 72.2942 13.2153C74.108 10.5654 75.3069 8.81525 76.7726 8.80535C76.7767 8.80535 76.7819 8.80535 76.786 8.80535C77.404 8.80535 77.8974 9.09025 78.0807 9.21345C78.3207 9.37405 78.9593 9.80195 79.567 12.1417C80.1047 14.213 80.1211 15.8519 80.1211 15.9201L80.1284 17.1621C80.152 21.319 80.1644 23.608 80.0563 24.7872C79.4455 31.4246 78.0107 38.4327 77.1836 42.1254C76.8797 42.4818 76.5965 42.868 76.2844 43.2915C75.4398 44.4409 74.7724 45.3484 74.4129 46.7597C74.3006 47.1986 74.2532 47.5583 74.2141 47.8476C74.1513 48.3151 74.1173 48.5736 73.8876 48.9322C73.6991 49.2259 73.5364 49.3293 73.2418 49.5174C73.0492 49.6406 72.8092 49.7924 72.529 50.0267C71.6463 50.7615 71.156 51.7405 70.2671 53.5192C69.4751 55.1021 69.1001 55.9107 68.8365 57.0107C68.7767 57.2582 68.7304 57.4848 68.6861 57.7037C68.5264 58.4891 68.4255 58.9158 68.0506 59.2799C67.9208 59.4064 67.8209 59.4647 67.6695 59.5517C67.5006 59.6496 67.2894 59.7716 67.0144 60.006C66.3974 60.5328 65.9164 61.2313 65.5848 62.0839L66.726 62.5898C66.9341 62.0541 67.2163 61.6043 67.5665 61.2457C68.2617 61.6791 68.9971 62.0475 69.7563 62.3412C70.7224 62.7152 71.4815 63.0089 72.048 63.0089C72.3776 63.0089 72.6423 62.9089 72.8452 62.6679C73.3098 62.1114 72.9905 61.2919 72.6588 60.6396C72.2118 59.7584 71.3898 58.5341 70.1518 56.9017C70.3804 56.1317 70.7172 55.4234 71.3579 54.1418C72.0902 52.6777 72.5033 51.8527 73.0481 51.2928C73.8814 52.5193 75.2688 54.0373 77.2959 54.6533C77.644 54.7589 77.9973 54.8667 78.3197 54.8667C78.6029 54.8667 78.8625 54.7831 79.0705 54.5422C79.6855 53.8272 79.0572 52.5634 78.2847 51.3027C77.6687 50.2974 76.7448 48.9883 75.5387 47.4109C75.5582 47.3153 75.5799 47.2141 75.6077 47.1073C75.9012 45.9546 76.4708 45.179 77.2598 44.1065C77.8098 43.3585 78.2115 42.814 78.7698 42.3344C80.3756 44.0933 82.1554 45.2725 84.066 45.8412C84.4667 45.9611 84.8118 46.0381 85.1012 46.0381C85.4256 46.0381 85.6801 45.9402 85.8644 45.6949C86.3351 45.069 85.9994 44.1637 84.6253 42.3564C83.8693 41.361 82.7744 40.0751 81.3716 38.5328C81.388 38.4503 81.4086 38.3634 81.4354 38.271C81.6672 37.4801 82.3562 36.2877 84.3256 35.1019C84.3627 35.0788 84.3987 35.059 84.4358 35.0381C85.3288 36.2635 86.8038 37.7893 88.9173 38.4251C89.2696 38.5307 89.627 38.6385 89.9504 38.6385C90.245 38.6385 90.5087 38.5483 90.7126 38.2864C91.2307 37.6166 90.7188 36.599 89.7908 35.2779C89.1676 34.3902 88.2499 33.2418 87.0613 31.8624C87.4125 31.0441 88.1644 30.4589 89.6445 29.3094C92.1299 27.3789 93.7717 26.1028 95.1705 26.5714C95.7668 26.7717 96.1593 27.2083 96.2994 27.3876C96.4817 27.6197 96.9678 28.2346 96.8762 30.6612C96.7948 32.8139 96.3426 34.3748 96.323 34.4397L96.1078 35.1712C94.811 39.5756 94.159 41.7867 93.7244 42.8603C91.0494 49.4559 87.2292 56.5662 85.7099 59.3173L86.7749 59.9873C88.3055 57.2153 92.1567 50.0476 94.8584 43.3849C95.3198 42.2475 95.977 40.0156 97.2871 35.5672L97.5024 34.8357C97.524 34.7631 98.0246 33.0406 98.1111 30.7141C98.2059 28.107 97.6971 27.1115 97.2418 26.534ZM63.876 59.2865C63.774 59.292 63.672 59.2965 63.5907 59.2987C61.8881 59.3603 60.4275 58.5595 59.4439 57.8082C59.5974 57.6355 59.7611 57.4286 59.894 57.0921C59.9723 56.8919 60.0155 56.7048 60.0351 56.5255C62.4875 58.049 63.4774 58.8729 63.876 59.2865ZM65.7557 50.9375C65.6538 50.9431 65.5518 50.9474 65.4704 50.9496C63.7905 51.0112 62.3475 50.2313 61.3648 49.4899C61.4534 49.3403 61.5389 49.1621 61.6162 48.9356C61.7181 48.6363 61.7696 48.3613 61.7892 48.0995C64.3343 49.6725 65.3509 50.5173 65.7557 50.9375ZM68.1453 40.0354C68.0145 40.0453 67.8672 40.0508 67.7508 40.0541C66.0029 40.1169 64.5146 39.2732 63.532 38.5076C63.7472 38.237 63.9543 37.9246 64.0964 37.4153C64.1644 37.17 64.1994 36.9511 64.2128 36.7476C66.9155 38.6715 67.8343 39.6141 68.1453 40.0354ZM71.9223 29.4403C71.8482 29.4458 71.7637 29.4513 71.6679 29.4557C69.9808 29.526 68.237 29.0761 66.4778 28.1236C66.7445 27.8265 66.9938 27.5339 67.1658 27.0114C67.2482 26.7617 67.2863 26.5373 67.2987 26.3316C70.2774 28.0653 71.4568 28.986 71.9223 29.4403ZM74.4531 20.7964C74.349 20.8031 74.245 20.8063 74.1667 20.8096C72.3858 20.8789 70.8511 20.1079 69.8078 19.373C69.9025 19.2256 69.9952 19.0606 70.0848 18.8659C70.2414 18.526 70.3403 18.2059 70.4052 17.9089C73.009 19.5139 74.0431 20.3719 74.4531 20.7964ZM70.1775 61.0982C69.6749 60.9035 69.1836 60.6725 68.7098 60.4096C68.7654 60.3645 68.8231 60.3129 68.8828 60.2546C69.4164 59.7343 69.6306 59.1446 69.7789 58.5176C71.1097 60.3326 71.5845 61.2269 71.7524 61.6471C71.3445 61.5492 70.6905 61.2962 70.1775 61.0982ZM77.6337 53.3806C75.9517 52.8702 74.7754 51.5811 74.0596 50.5305C74.3418 50.3424 74.6292 50.1136 74.9093 49.6747C75.0443 49.4635 75.1401 49.2666 75.2111 49.0763C77.2341 51.7911 77.8397 52.9879 78.0148 53.4906C77.8881 53.4576 77.746 53.4147 77.6337 53.3806ZM84.6428 44.6356C84.5707 44.6169 84.4883 44.5949 84.3956 44.5674C82.7693 44.0834 81.2377 43.0868 79.8348 41.6051C80.1737 41.4093 80.495 41.2124 80.8082 40.7713C80.9585 40.5601 81.0584 40.3599 81.1285 40.1674C83.4697 42.7898 84.3297 44.0515 84.6428 44.6356ZM89.249 37.1512C87.532 36.6343 86.2929 35.4 85.5091 34.3605C85.6409 34.2516 85.7769 34.124 85.918 33.9678C86.1642 33.6961 86.3496 33.4222 86.4968 33.1604C88.5167 35.5375 89.2572 36.6925 89.525 37.2315C89.4241 37.204 89.3252 37.1743 89.249 37.1512Z" fill="#CD1447"/>
    <path d="M34.2654 52.3465C34.0728 51.9461 33.8009 51.7404 33.7721 51.7195C33.5218 51.5358 33.3117 51.516 33.1726 51.5028C33.0984 51.4962 33.082 51.4929 33.0686 51.483C33.0367 51.4621 33.0181 51.307 33.0027 51.1695C32.9676 50.8714 32.9203 50.4622 32.6483 50.0255C32.3836 49.5998 32.0345 49.3556 31.847 49.2247C31.5256 49.0003 31.2887 48.9255 31.1322 48.876C31.093 48.8639 31.0467 48.8485 31.0261 48.8397C30.9777 48.7649 31.0292 48.568 31.0776 48.3788C31.1641 48.0444 31.2826 47.5857 31.0014 47.1732C30.8191 46.9059 30.576 46.8212 30.4143 46.7651C30.3895 46.7563 30.3597 46.7464 30.336 46.7365C30.3484 46.6342 30.4565 46.4274 30.5059 46.3339C30.5647 46.2228 30.6017 46.1788 30.6584 46.1139C30.713 46.0501 30.782 45.9709 30.8592 45.8411C31.1301 45.3879 31.3444 44.6817 31.0518 44.179C30.6738 43.53 29.8694 43.596 29.2813 43.6433C28.4336 43.7126 27.8166 44.0855 27.554 44.245C27.3294 44.3814 26.8021 44.6993 26.3149 45.3241C25.9214 45.8301 25.6351 46.434 25.4775 47.0874C25.4177 47.1831 25.3487 47.2678 25.2694 47.3371C25.1551 47.4372 25.0552 47.479 24.9666 47.5164C24.9336 47.5307 24.9038 47.5428 24.879 47.5549C24.1488 47.9124 23.9922 49.2049 24.0653 49.987C24.1467 50.8593 24.5783 51.8801 25.0346 52.2695C25.049 52.2816 25.0933 52.319 25.1005 52.3476C25.1087 52.3795 25.0747 52.4587 25.0583 52.4961L25.0449 52.528C24.808 53.0978 25.0171 53.6852 25.2385 54.3067C25.5084 55.0657 25.9358 55.5585 26.1676 55.7862C26.5044 56.1162 27.2048 56.8015 28.0751 56.719C28.174 56.7091 28.2585 56.6915 28.3254 56.6772C28.345 56.6728 28.3687 56.6684 28.3903 56.664C28.3965 56.686 28.4027 56.7102 28.4078 56.7322C28.449 56.8939 28.5098 57.1381 28.7065 57.3988C28.9218 57.6848 29.2226 57.8938 29.5995 58.0225C29.6016 58.0236 29.6047 58.0236 29.6067 58.0247C29.6088 58.0258 29.6098 58.0258 29.6119 58.0269C29.6129 58.0269 29.614 58.0269 29.614 58.028C30.0672 58.1941 30.5307 58.2744 30.9869 58.2744C32.224 58.2744 33.3951 57.6848 34.0914 56.6321C35.3706 54.6961 34.2768 52.3696 34.2654 52.3465ZM26.9483 45.8873C27.3387 45.3857 27.7579 45.1327 27.9598 45.0106C28.1936 44.8687 28.6798 44.575 29.3441 44.52C29.6789 44.4925 30.2381 44.4474 30.3514 44.6421C30.4071 44.7367 30.336 45.081 30.165 45.3659C30.1259 45.4308 30.095 45.4671 30.0517 45.5177C29.9806 45.6002 29.8931 45.7014 29.788 45.9016C29.6964 46.0754 29.5769 46.3031 29.5316 46.555L26.3612 47.0049C26.4745 46.6562 26.6568 46.2624 26.9483 45.8873ZM24.8863 49.9001C24.8203 49.1895 25.016 48.4569 25.2231 48.3557C25.2365 48.3491 25.2529 48.3425 25.2704 48.3348C25.3858 48.2864 25.5784 48.205 25.7916 48.018C25.8102 48.0015 25.8277 47.9839 25.8452 47.9663L29.787 47.4064C29.9137 47.5153 30.0558 47.5648 30.1588 47.6011C30.2639 47.6374 30.3123 47.6572 30.335 47.6913C30.3823 47.7606 30.3298 47.9641 30.2835 48.1445C30.2258 48.3678 30.1537 48.6483 30.1959 48.9332L25.3467 51.318C25.1499 50.988 24.9357 50.4358 24.8863 49.9001ZM28.1637 55.8148C28.1081 55.8269 28.0556 55.8379 28.001 55.8434C27.4932 55.8918 27.0112 55.4199 26.7238 55.1383C26.5466 54.9645 26.217 54.5839 26.0079 53.9954C25.8421 53.5279 25.6989 53.1242 25.7978 52.8855L25.806 52.8646C25.8586 52.7436 25.9801 52.4609 25.8977 52.1243C25.8895 52.0913 25.8792 52.0594 25.8689 52.0297L30.7068 49.6515C30.7737 49.6812 30.8386 49.7021 30.8994 49.7219C31.0292 49.7626 31.1765 49.8088 31.3959 49.9628C31.5534 50.0728 31.7904 50.2389 31.9613 50.5139C32.1251 50.7779 32.1539 51.0221 32.1838 51.2795C32.2044 51.4566 32.2281 51.6568 32.3084 51.8427L28.8167 55.8896C28.8157 55.8896 28.8157 55.8885 28.8147 55.8874C28.5613 55.7301 28.3316 55.7785 28.1637 55.8148ZM33.4177 56.1228C32.7318 57.159 31.4412 57.6111 30.1939 57.2899L30.1949 57.2426C30.0795 57.2415 29.9662 57.2217 29.8581 57.1854C29.6335 57.1106 29.4625 56.9962 29.3492 56.8455C29.306 56.7872 29.2772 56.7344 29.2565 56.6794L32.981 52.363C33.0243 52.3696 33.0645 52.374 33.1005 52.3773C33.1953 52.3861 33.2344 52.3905 33.3044 52.4411C33.3055 52.4422 33.4384 52.5467 33.5352 52.748C33.5414 52.7667 34.3973 54.6433 33.4177 56.1228Z" fill="#CD1447"/>
    <path d="M57.7555 57.5993L57.3785 55.2673L56.3815 49.8388L55.8665 46.904C55.8582 46.838 55.7851 46.2462 55.8819 45.7017C55.8953 45.6269 55.9108 45.5576 55.9293 45.4938C55.9283 45.4817 55.9283 45.4696 55.9283 45.4575C55.9283 45.3156 55.9685 45.1792 56.0509 45.0439L56.2496 44.7997C56.4938 44.5599 56.8821 44.3223 57.4311 44.0693C58.2674 43.6854 59.3901 43.3191 60.5942 43.0364C62.4904 42.592 64.9511 42.2862 65.6463 42.8835C65.7329 42.9583 65.7977 43.0474 65.84 43.1453C66.0789 43.3136 66.3354 43.8042 66.426 44.0737C66.5023 44.3003 66.5414 44.5412 66.5445 44.792L67.9927 56.8238L67.2758 56.936L57.7555 57.5993Z" fill="white"/>
    <path d="M68.1153 57.0856L66.6321 44.616C66.629 44.3586 66.5899 44.1122 66.5116 43.8812C66.4189 43.6051 66.1552 43.1013 65.9132 42.9363C65.8709 42.8362 65.805 42.7449 65.7175 42.6701C65.0099 42.0618 62.4946 42.3764 60.5561 42.8307C59.3243 43.1189 58.1748 43.494 57.3199 43.8878C56.261 44.374 55.7893 44.8074 55.7893 45.2925C55.7893 45.3057 55.7903 45.3178 55.7914 45.331C55.7728 45.3981 55.7553 45.4696 55.7419 45.5466C55.677 45.9096 55.6873 46.2946 55.7038 46.5366L55.6966 46.5377L55.709 46.6125C55.7162 46.6961 55.7234 46.7533 55.7254 46.772L55.7357 46.7709L57.6124 57.8985L58.423 57.7423L57.977 55.0957C58.9195 55.3729 60.5345 55.6853 62.4678 55.2772C64.6257 54.8218 66.044 53.9748 66.8257 53.3247C67.0359 55.0583 67.2182 56.5477 67.2975 57.1989L68.1153 57.0856ZM66.1068 43.4115C66.0862 43.5094 66.0337 43.6029 65.9441 43.6689C65.8823 43.7151 65.8194 43.7382 65.7576 43.7459C65.805 43.6887 65.8411 43.6337 65.8699 43.582L66.1068 43.4115ZM60.7323 43.6887C63.0065 43.1563 64.5041 43.1541 65.0243 43.2828C64.8358 43.4401 64.465 43.6524 63.9294 43.8845C63.9716 43.8339 63.9974 43.78 63.9974 43.7206C63.9974 43.6535 63.9696 43.5919 63.9191 43.5457C63.6781 43.3246 62.782 43.4599 62.6048 43.4885C62.2093 43.5534 61.2885 43.7448 61.2885 44.1111C61.2885 44.1771 61.3163 44.2398 61.3667 44.286C61.4718 44.3828 61.6963 44.4125 61.9343 44.4125C62.2186 44.4125 62.5193 44.3696 62.6522 44.3487C62.6738 44.3454 62.6985 44.341 62.7233 44.3366C62.1073 44.5379 61.3842 44.7359 60.5654 44.9097C58.5414 45.3387 57.2334 45.3277 56.7441 45.2111C57.1736 44.8613 58.5126 44.209 60.7323 43.6887ZM63.5596 43.7602C63.3855 43.8416 63.0611 43.9483 62.6058 44.022C62.2 44.0869 61.8993 44.0902 61.7262 44.0715C61.8951 43.9923 62.2072 43.8889 62.6522 43.8152C63.0724 43.7459 63.3814 43.7415 63.5596 43.7602ZM61.3091 48.8081C59.7404 49.0688 58.1336 49.1282 56.9604 49.0655L56.5278 46.4981C56.5196 46.3859 56.5113 46.2231 56.5175 46.0493C56.8121 46.1285 57.1798 46.1593 57.5753 46.1593C58.8072 46.1593 60.31 45.8601 60.724 45.7721C62.0373 45.4938 63.2887 45.1121 64.2487 44.6963C64.9419 44.396 65.3601 44.132 65.6103 43.901C65.6567 43.9824 65.702 44.077 65.736 44.1782C65.7968 44.3586 65.8194 44.5588 65.804 44.7711L65.8174 44.7722C65.8483 45.1088 65.9564 46.0636 66.1037 47.3099C64.9038 47.8566 63.1692 48.499 61.3091 48.8081Z" fill="#CD1447"/>
    <path d="M92.8684 54.5578V54.6722L89.7382 57.134L86.0766 54.2531L82.4149 57.134L78.7533 54.2531L75.0916 57.134L71.43 54.2531L67.7694 57.134L64.1077 54.2531L60.4461 57.134L56.7855 54.2531L53.1238 57.134L49.4622 54.2531L45.8015 57.134L42.1399 54.2531L38.4793 57.134L34.8176 54.2531L31.157 57.134L27.4964 54.252L23.8347 57.134L20.1741 54.252L16.5135 57.134L13.4935 54.7569V54.5578H12.2112V58.3583V110.631H13.4935H92.8684H94.1508V58.3583V54.5578H92.8684Z" fill="white"/>
    <path d="M12.1462 110.191V54.2002" stroke="#CD1447" stroke-width="2" stroke-miterlimit="10" stroke-linecap="round"/>
    <path d="M94.2146 110.191V54.2002" stroke="#CD1447" stroke-width="2" stroke-miterlimit="10" stroke-linecap="round"/>
    <path d="M12.2534 54.6216L15.9542 58.5816L19.655 54.6216L23.3558 58.5816L27.0566 54.6216L30.7574 58.5816L34.4582 54.6216L38.16 58.5816L41.8608 54.6216L45.5626 58.5816L49.2634 54.6216L52.9642 58.5816L56.666 54.6216L60.3668 58.5816L64.0686 54.6216L67.7694 58.5816L71.4702 54.6216L75.172 58.5816L78.8738 54.6216L82.5746 58.5816L86.2764 54.6216L89.9793 58.5816L93.6811 54.6216" stroke="#CD1447" stroke-width="2" stroke-miterlimit="10" stroke-linecap="round"/>
    <path d="M36.1164 84.6219C36.414 84.6351 36.586 84.7979 36.586 84.7979C36.7271 84.898 36.8209 85.0234 36.7735 85.1235C36.7735 85.1235 33.8246 91.542 28.0587 91.542C27.555 91.542 26.5858 91.4793 25.9101 90.7555C24.8317 89.5994 24.9429 87.1838 26.2088 84.6153C25.6042 84.04 25.2931 83.4526 25.1366 83.0885C24.98 82.7244 24.8348 82.3779 24.8688 81.9115C24.9048 81.4088 25.1273 81.0414 25.256 80.8621C25.2457 81.1833 25.2674 81.6409 25.4219 82.1579C25.6876 83.0445 26.1933 83.6033 26.4622 83.8607C28.1709 80.3308 31.3639 76.88 34.2943 76.88C34.5611 76.88 35.2388 76.8581 35.5849 77.319C35.7085 77.484 35.9855 77.9691 35.5035 79.398C34.3726 82.7508 31.4814 84.2974 31.4814 84.2974C30.9107 84.6021 29.9642 85.0212 28.6808 85.1884C28.31 85.7923 27.5735 87.1441 27.6261 88.5742C27.6384 88.9272 27.6683 89.5136 28.0545 89.8557C28.3491 90.1164 28.7199 90.1186 28.8476 90.1186C30.6893 90.1252 35.3264 84.5878 36.1164 84.6219ZM29.0361 84.3007C31.8346 83.9597 34.6517 80.8302 34.6517 79.0856C34.6517 78.8249 34.6146 78.6247 34.2953 78.6247C32.9985 78.6236 30.5945 81.4319 29.0361 84.3007Z" fill="#CD1447"/>
    <path d="M46.165 85.1235C45.0567 87.5908 43.3098 90.1186 41.2436 90.1186C41.2436 90.1186 39.8542 90.1593 39.779 88.4532C38.7644 89.4355 37.6376 90.1186 36.586 90.1186C36.1729 90.1186 34.802 89.8172 34.802 88.0924C34.802 85.0432 38.3895 80.8115 40.9624 80.8115C41.6577 80.8115 42.766 81.4132 42.766 82.4967C42.766 82.7772 42.7474 83.0786 42.6722 83.3789C43.0667 83.4988 43.4046 83.6803 43.4046 83.8607C43.4046 84.3018 41.8647 87.2102 41.8647 88.1738C41.8647 88.5346 42.0336 88.6556 42.2211 88.6556C42.9349 88.6556 44.5314 86.4897 45.3204 84.7044C45.4512 84.4206 46.2968 84.8419 46.165 85.1235ZM41.3188 83.1776C41.3188 82.9367 41.2436 82.676 40.9429 82.676C39.7223 82.676 36.8857 86.6877 36.8857 88.3124C36.8857 88.693 37.0546 88.7942 37.2421 88.7942C38.5018 88.7942 41.3188 84.7616 41.3188 83.1776Z" fill="#CD1447"/>
    <path d="M53.9601 85.1235C52.8333 87.5908 51.105 90.1186 49.0388 90.1186C48.0994 90.1186 47.5546 89.738 46.4473 89.6973C46.0528 89.9778 45.6769 90.1186 45.3957 90.1186C43.724 90.1186 44.1751 88.5544 45.5831 88.0726C47.6679 87.3301 49.3962 84.8837 50.5045 82.8971C50.3325 82.7761 50.0976 82.6331 49.8041 82.5154C49.6321 82.4461 49.3138 82.3218 48.8802 82.2932C48.8802 82.2932 48.4445 82.2635 48.0757 82.357C46.8439 82.6672 46.4834 85.4788 45.8417 85.4436C45.7181 85.437 45.5306 85.3215 45.3205 84.7033C45.3205 84.7033 46.8233 80.8115 48.8513 80.8115C50.2408 80.8115 50.6919 81.5936 52.1762 81.1723C52.7962 80.9721 53.1907 81.7135 52.7962 82.3559C51.6128 84.2611 49.697 86.7482 48.0438 88.3938C48.4568 88.5137 48.9265 88.6545 49.6774 88.6545C50.8042 88.6545 52.3255 86.5084 53.1145 84.7033C53.2463 84.4206 54.0724 84.8419 53.9601 85.1235Z" fill="#CD1447"/>
    <path d="M63.3505 85.1235C62.2422 87.5908 60.4953 90.1186 58.4292 90.1186C58.4292 90.1186 57.0397 90.1593 56.9645 88.4532C55.95 89.4355 54.8231 90.1186 53.7715 90.1186C53.3585 90.1186 51.9875 89.8172 51.9875 88.0924C51.9875 85.0432 55.575 80.8115 58.148 80.8115C58.8432 80.8115 59.9515 81.4132 59.9515 82.4967C59.9515 82.7772 59.933 83.0786 59.8578 83.3789C60.2523 83.4988 60.5901 83.6803 60.5901 83.8607C60.5901 84.3018 59.0503 87.2102 59.0503 88.1738C59.0503 88.5346 59.2192 88.6556 59.4066 88.6556C60.1204 88.6556 61.7169 86.4897 62.5059 84.7044C62.6377 84.4206 63.4824 84.8419 63.3505 85.1235ZM58.5054 83.1776C58.5054 82.9367 58.4302 82.676 58.1294 82.676C56.9089 82.676 54.0723 86.6877 54.0723 88.3124C54.0723 88.693 54.2412 88.7942 54.4287 88.7942C55.6883 88.7942 58.5054 84.7616 58.5054 83.1776Z" fill="#CD1447"/>
    <path d="M72.1221 85.1232C71.0138 87.5905 69.5863 89.3956 67.5396 89.3956C67.2389 89.3956 66.7321 89.3351 66.281 89.0546C65.4354 89.697 64.5341 90.1172 63.7266 90.1172C63.3321 90.1172 62.881 89.9566 62.4865 89.6563C61.6604 91.6825 61.0403 93.4271 61.0403 93.8682C61.0403 94.3093 59.2368 93.9287 59.2368 93.2665C59.2368 92.5647 60.5326 89.2944 61.8283 86.2463C61.922 86.0054 62.0158 85.7447 62.1476 85.5038C63.0303 83.4776 63.8564 81.6527 64.2509 80.93C64.4198 80.6286 65.8474 80.9707 66.0729 81.4118C66.7682 81.0312 67.4624 80.8101 68.1206 80.8101C68.5336 80.8101 69.9045 81.1115 69.9045 82.8165C69.9045 84.4412 68.89 86.4069 67.5572 87.871C67.6323 87.9106 67.7261 87.9315 67.8198 87.9315C69.2474 87.9315 70.4865 86.4872 71.2755 84.7019C71.4083 84.4203 72.254 84.8416 72.1221 85.1232ZM63.9522 88.2516C64.3281 88.2516 64.8349 87.8908 65.3797 87.3485C65.424 87.3056 65.4683 87.2616 65.5126 87.2165C65.8618 86.8612 66.1522 86.4905 66.3943 86.1242C67.277 84.901 68.0093 83.4358 68.0093 82.6141C68.0093 82.2335 67.8404 82.1323 67.6529 82.1323C66.3943 82.1323 63.5772 86.1638 63.5772 87.7489C63.5762 87.9909 63.6514 88.2516 63.9522 88.2516Z" fill="#CD1447"/>
    <path d="M80.8936 85.1232C79.7853 87.5905 78.3577 89.3956 76.3111 89.3956C76.0104 89.3956 75.5036 89.3351 75.0525 89.0546C74.2068 89.697 73.3056 90.1172 72.4981 90.1172C72.1036 90.1172 71.6524 89.9566 71.2579 89.6563C70.4319 91.6825 69.8118 93.4271 69.8118 93.8682C69.8118 94.3093 68.0083 93.9287 68.0083 93.2665C68.0083 92.5647 69.304 89.2944 70.5998 86.2463C70.6935 86.0054 70.7872 85.7447 70.9191 85.5038C71.8018 83.4776 72.6279 81.6527 73.0223 80.93C73.1913 80.6286 74.6188 80.9707 74.8444 81.4118C75.5397 81.0312 76.2339 80.8101 76.8921 80.8101C77.3051 80.8101 78.676 81.1115 78.676 82.8165C78.676 84.4412 77.6615 86.4069 76.3286 87.871C76.4038 87.9106 76.4976 87.9315 76.5913 87.9315C78.0189 87.9315 79.258 86.4872 80.0469 84.7019C80.1798 84.4203 81.0254 84.8416 80.8936 85.1232ZM72.7236 88.2516C73.0996 88.2516 73.6064 87.8908 74.1512 87.3485C74.4891 86.9404 74.8269 86.5323 75.1658 86.1253C76.0485 84.9021 76.7808 83.4369 76.7808 82.6152C76.7808 82.2346 76.6119 82.1334 76.4244 82.1334C75.1658 82.1334 72.3487 86.1649 72.3487 87.75C72.3477 87.9909 72.4229 88.2516 72.7236 88.2516Z" fill="#CD1447"/>
    <path d="M85.3638 85.1233C84.2555 87.5906 82.5087 90.1184 80.4425 90.1184C80.4425 90.1184 78.9583 90.1789 78.9583 88.2726C78.9583 86.5676 81.663 81.0918 81.832 80.9114C82.0946 80.6309 83.6726 81.0313 83.6726 81.4328C83.6726 81.8739 81.0615 87.0087 81.0615 88.1725C81.0615 88.5333 81.2304 88.6543 81.4179 88.6543C82.1317 88.6543 83.7282 86.4884 84.5172 84.7031C84.65 84.4204 85.4957 84.8417 85.3638 85.1233ZM83.4583 76.1528C83.8147 75.6457 84.6346 75.1265 85.3257 75.5071C85.9674 75.8602 86.1106 76.7754 85.9571 77.3606C85.8747 77.673 85.6924 77.8875 85.3257 78.3154C85.0157 78.6784 84.922 78.6971 84.1948 79.3549C83.5521 79.9368 83.412 80.1183 83.274 80.0567C83.1256 79.9907 83.1112 79.6002 83.0896 78.8214C83.0741 78.2758 83.0669 78.0041 83.1071 77.618C83.1874 76.8678 83.2214 76.4894 83.4583 76.1528Z" fill="#CD1447"/>
    <path d="M84.5604 77.5862C84.8624 77.5862 85.1073 77.3597 85.1073 77.0802C85.1073 76.8008 84.8624 76.5742 84.5604 76.5742C84.2583 76.5742 84.0134 76.8008 84.0134 77.0802C84.0134 77.3597 84.2583 77.5862 84.5604 77.5862Z" fill="white"/>
    <path d="M23.8461 86.9648H20.686L21.3803 86.0386H24.3848L23.8461 86.9648Z" fill="#CD1447"/>
    <path d="M23.2413 82.6758H19.6167L20.4119 81.7485H23.8593L23.2413 82.6758Z" fill="#CD1447"/>
    <path d="M27.6755 79.5508H23.5308L24.4403 78.6235H28.3821L27.6755 79.5508Z" fill="#CD1447"/>
  </g>
  <defs>
    <clipPath id="clip0_997_2029">
      <rect width="103" height="110" fill="white" transform="translate(0.5)"/>
    </clipPath>
  </defs>
</svg>