<svg width="527" height="75" viewBox="0 0 527 75" fill="none" xmlns="http://www.w3.org/2000/svg"><path d="M52.86 57.3V25.37H49.62V60.54H66.95V68.96H20.53V60.54H37.86V16.41H55.08V1.50999H2.17999V16.41H19.51V48.34H22.75V13.17H5.41999V4.75H51.84V13.17H34.51V57.3H17.29V72.2H70.19V57.3H52.86Z" fill="#E84B19"></path><path d="M71.55 73.55H15.94V55.94H33.16V11.81H50.49V6.10001H6.78001V11.81H24.1V49.69H18.15V17.76H0.820007V0.149994H56.43V17.76H39.22V61.89H21.89V67.6H65.6V61.89H48.26V24.01H54.21V55.94H71.54V73.55H71.55ZM18.64 70.84H68.83V58.65H51.51V26.72H50.98V59.18H68.31V70.31H19.18V59.18H36.51V15.05H53.73V2.86H3.53001V15.05H20.86V46.98H21.39V14.52H4.07001V3.39H53.2V14.52H35.86V58.65H18.64V70.84Z" fill="#E84B19"></path><path d="M90.95 73.55V0.880005H135.24V13.35H105.24V61.08H135.73V73.55H90.95ZM101.41 42.62V30.15H130.33V42.62H101.41Z" fill="#482683"></path><path d="M155.92 74.29C153.37 74.29 150.71 74.09 147.96 73.7C145.21 73.31 142.84 72.77 140.84 72.08V60.59C142.41 61.05 144.05 61.45 145.75 61.79C147.45 62.13 149.15 62.4 150.86 62.58C152.56 62.76 154.23 62.85 155.87 62.85C158.23 62.85 160.09 62.61 161.47 62.14C162.85 61.67 163.84 60.99 164.44 60.1C165.05 59.22 165.35 58.15 165.35 56.91C165.35 55.93 165.13 55.05 164.69 54.28C164.25 53.51 163.42 52.81 162.21 52.17C161 51.53 159.28 50.92 157.05 50.33L153.81 49.5C148.93 48.19 145.25 46.17 142.76 43.44C140.27 40.71 139.03 37.15 139.03 32.76C139.03 29.06 139.91 25.84 141.68 23.09C143.45 20.34 146.17 18.2 149.83 16.68C153.5 15.16 158.18 14.4 163.87 14.4C166.1 14.4 168.33 14.51 170.57 14.74C172.81 14.97 174.77 15.28 176.44 15.67V27.16C174.74 26.74 172.9 26.41 170.92 26.18C168.94 25.95 167 25.84 165.1 25.84C162.09 25.84 159.74 26.08 158.05 26.55C156.36 27.02 155.18 27.7 154.49 28.56C153.8 29.43 153.46 30.45 153.46 31.63C153.46 33.17 153.93 34.39 154.86 35.29C155.79 36.19 157.83 37.08 160.97 37.97L164.21 38.85C167.71 39.77 170.61 40.98 172.9 42.48C175.19 43.99 176.9 45.84 178.03 48.05C179.16 50.26 179.72 52.89 179.72 55.93C179.72 59.66 178.81 62.9 176.99 65.65C175.17 68.4 172.5 70.53 168.96 72.03C165.44 73.54 161.09 74.29 155.92 74.29Z" fill="#482683"></path><path d="M213.71 74.29C207.65 74.29 202.47 73.29 198.17 71.3C193.87 69.3 190.56 66.11 188.25 61.72C185.94 57.33 184.79 51.57 184.79 44.44C184.79 37.63 185.98 32 188.35 27.55C190.72 23.1 194.14 19.79 198.59 17.63C203.04 15.47 208.38 14.39 214.6 14.39C216.6 14.39 218.59 14.48 220.59 14.66C222.59 14.84 224.42 15.14 226.09 15.57V27.11C224.42 26.72 222.75 26.42 221.08 26.23C219.41 26.03 217.69 25.94 215.92 25.94C212.38 25.94 209.43 26.52 207.06 27.68C204.69 28.84 202.9 30.76 201.71 33.45C200.52 36.14 199.92 39.77 199.92 44.35C199.92 49.06 200.5 52.76 201.66 55.45C202.82 58.13 204.58 60.03 206.94 61.12C209.3 62.22 212.24 62.76 215.78 62.76C217.32 62.76 218.98 62.6 220.76 62.27C222.54 61.94 224.32 61.48 226.09 60.89V72.43C224.52 73.02 222.62 73.48 220.39 73.81C218.16 74.12 215.94 74.29 213.71 74.29Z" fill="#482683"></path><path d="M227.71 73.55L243.77 15.12H265.33L281.44 73.55H267.25L253.7 21.3H255.12L241.71 73.55H227.71ZM238.12 58.97L240.82 47.63H268.17L270.92 58.97H238.12Z" fill="#482683"></path><path d="M293.75 73.55L277.94 15.12H292.82L306.52 68.4H303.62L317.81 15.12H331.66L315.85 73.55H293.75V73.55Z" fill="#482683"></path><path d="M328.17 73.55L344.23 15.12H365.79L381.9 73.55H367.7L354.15 21.3H355.57L342.16 73.55H328.17ZM338.58 58.97L341.28 47.63H368.63L371.38 58.97H338.58Z" fill="#482683"></path><path d="M392.25 73.55V27.15H375.46V15.12H423.58V27.15H406.79V73.55H392.25Z" fill="#482683"></path><path d="M442.63 73.55V27.15H425.84V15.12H473.96V27.15H457.17V73.55H442.63Z" fill="#482683"></path><path d="M500.38 74.29C495.27 74.29 490.76 73.27 486.85 71.22C482.94 69.17 479.88 65.95 477.67 61.55C475.46 57.15 474.36 51.43 474.36 44.39C474.36 37.32 475.46 31.57 477.67 27.15C479.88 22.73 482.94 19.5 486.85 17.45C490.76 15.4 495.27 14.38 500.38 14.38C505.52 14.38 510.04 15.4 513.96 17.45C517.87 19.5 520.93 22.73 523.14 27.15C525.35 31.57 526.45 37.31 526.45 44.39C526.45 51.43 525.35 57.15 523.14 61.55C520.93 65.95 517.87 69.18 513.96 71.22C510.04 73.27 505.52 74.29 500.38 74.29ZM500.38 62.95C502.8 62.95 504.86 62.38 506.54 61.23C508.23 60.09 509.5 58.17 510.37 55.48C511.24 52.8 511.67 49.18 511.67 44.63C511.67 39.88 511.24 36.13 510.37 33.36C509.5 30.59 508.23 28.63 506.54 27.47C504.85 26.31 502.8 25.73 500.38 25.73C497.99 25.73 495.96 26.3 494.29 27.45C492.62 28.6 491.34 30.51 490.46 33.2C489.58 35.88 489.13 39.5 489.13 44.05C489.13 48.8 489.57 52.54 490.46 55.29C491.34 58.04 492.62 60 494.29 61.18C495.96 62.36 497.99 62.95 500.38 62.95Z" fill="#482683"></path></svg>